<?xml version="1.0" encoding="UTF-8"?>
<svg id="Layer_1" xmlns="http://www.w3.org/2000/svg" version="1.1" viewBox="0 0 216 216">
  <!-- Generator: Adobe Illustrator 29.5.1, SVG Export Plug-In . SVG Version: 2.1.0 Build 141)  -->
  <defs>
    <style>
      .st0 {
        fill: #fff;
      }

      .st1 {
        fill: #f2f2f2;
        font-family: FreeSansBold, FreeSans;
        font-size: 9.74px;
        letter-spacing: .02em;
      }

      .st2 {
        fill: #2563eb;
      }
    </style>
  </defs>
  <g>
    <rect class="st0" x="120.99" y="114.6" width="7.89" height="24.31"/>
    <rect class="st0" x="120.99" y="162.08" width="7.89" height="23.14"/>
    <polygon class="st0" points="144.13 138.91 133.83 138.91 143.6 114.6 154.48 114.6 144.13 138.91"/>
    <polygon class="st0" points="156.12 185.22 144.55 185.22 134.56 162.08 145.42 162.08 156.12 185.22"/>
    <path class="st0" d="M114.78,163.93c0,8.33-.68,14.06-2.05,17.15-1.36,3.12-3.61,4.68-6.75,4.68l-10.08.73-5.29-.32c-2.8,0-4.85-1.24-6.19-3.7-1.32-2.46-1.97-7.45-1.97-14.93v-4.24h7.77l.05,1.17c0,2.9.34,4.73,1.05,5.46.73.73,1.71,1.12,2.97,1.12l3.75.1,5.26-.41c1.46,0,2.41-.51,2.85-1.49.44-1,.66-2.56.66-4.65,0-1.92-.24-3.43-.76-4.56-.51-1.14-1.46-1.71-2.9-1.71h-1.29l-12.96-.73c-2.44,0-4.17-1.68-5.16-5.04-.97-3.34-1.49-8.48-1.49-15.4,0-5.85.32-10.4.95-13.67.63-3.24,1.78-5.43,3.46-6.6,1.68-1.17,3.85-1.85,6.58-2.07,2.7-.22,4.51-.32,5.46-.32l5.51.22c2.19,0,3.97.46,5.33,1.41,1.34.95,2.29,2.7,2.85,5.24.56,2.56.9,4.85,1.07,6.89.15,2.05.22,4.87.22,8.48h-7.72c0-2.48-.27-4.21-.8-5.19-.54-1-1.27-1.49-2.24-1.49l-3.8-.12-6.02.54c-.8,0-1.49.41-2.05,1.22-.56.83-.83,2.17-.83,4.07,0,2.63.34,4.34,1,5.14.66.83,1.56,1.22,2.68,1.22h.83l5.29.22,5.21.1c.63,0,1.24.05,1.83.17v19.46h7.7c.02.61.02,1.22.02,1.85Z"/>
    <path class="st0" d="M204.25,119.79c-1.51-3.46-4.21-5.21-8.14-5.21h-20.97v24.34h6.8v23.17h-6.8v23.12h7.89v-17.56h14.32c3.75,0,6.24-2.02,7.41-6.07,1.17-4.09,1.78-11.03,1.78-20.92,0-10.45-.78-17.39-2.29-20.85ZM197.65,148.75c-.61,1.14-1.66,1.75-3.17,1.75h-11.45v-18.76h11.35c1.56,0,2.63.61,3.26,1.85.61,1.24.93,3.8.93,7.79,0,3.73-.32,6.16-.93,7.36Z"/>
    <rect class="st0" x="160.5" y="114.6" width="7.89" height="24.31"/>
    <rect class="st0" x="160.5" y="162.08" width="7.89" height="23.14"/>
  </g>
  <path class="st2" d="M60.98,131.74c-.88-1.99-3.39-2.96-2.16-5.49,2.33-4.83,19.92-10.99,24.55-14.83l-11.17-5.44c-4.54,4.74-11.05,9.11-16.89,11.93-9.74,4.69-21.76,4.64-28.5,14.93-4.69,7.15-5.26,16.88-.12,23.5,14.16,18.23,44.69-1.41,34.29-24.6ZM38.12,153.95c-12.89-5.38-3.84-25.89,8.79-21.95,15.37,4.79,4.31,27.42-8.79,21.95Z"/>
  <path class="st2" d="M204.62,93.08l-8.2-.07-12.02,11.68-10.07-.27c-.44-.75,9.28-9.3,10.05-10.54.48-.77.29-1.17-.59-1.13l-15.53.34c-1.87.61-8.72,10.03-11.04,11.31-.68.39-8.52.55-9.97.51-.82-.04-1.92-.09-1.12-1.2.87-1.24,10.57-9.56,10.05-10.54l-16.38.12-11.06,11.33-10.5.44-.59-1.15,9.79-9.6-.61-1.16c-15.47.77-31.47-.75-46.88.16-9.82.57-19.62,4.15-29.3,2.4-.66-7.47-.55-14.25-6.44-19.47-19.84-17.57-46.29,11.25-29.34,28.71,12.3,12.65,23.94,2.54,37,.09,13.03-2.46,24.93-.06,37.45,3.26l114.97-.25.32-14.97ZM33.75,101.58c-18.34,7.01-20.82-25.15-1.15-21.79,10.55,1.83,12.32,17.51,1.15,21.79ZM89.52,104.34c-1.86-.52-2.91-2.54-2.36-4.51s2.5-3.14,4.36-2.62c1.86.52,2.91,2.54,2.36,4.51-.55,1.97-2.5,3.14-4.36,2.62Z"/>
  <path class="st2" d="M182.29,41.34c-1.87.65-12.77-2.67-15.58-2.84l-7.58,5.33c-.58.9-.55.94.39,1.26,3.57,1.2,8.71.83,12.08,2.22.9.37,1.01.36.4,1.28l-12.97,9.31-15.88-2.64-8.85,6.91,14.58,2.7-13.34,9.61-15.37-2.18-9.7,6.87,14.3,2.55-9.15,7.09-19.56-3.47,77.21-54.97c6.26-2.1,13.45-.37,16.59,5.67-2.37.55-5.74,4.67-7.57,5.3Z"/>
  <g>
    <rect class="st2" x="107.58" y="141.52" width="73.42" height="18.26"/>
    <text class="st1" transform="translate(112.39 154.18) scale(1.14 1)"><tspan x="0" y="0">MEDIA HUB</tspan></text>
    <path class="st2" d="M180.4,161.93c-2.89.19-4.12,3.39-1.78,5.04,2.95,2.08,6.83-1.36,4.38-4.02-.6-.66-1.32-.91-2.23-1.08v-16.73s-.37-.19-.37-.19v16.98Z"/>
    <path class="st2" d="M108.03,139.06c-2.89-.19-4.12-3.39-1.78-5.04,2.95-2.08,6.83,1.36,4.38,4.02-.6.66-1.32.91-2.23,1.08v16.73s-.37.19-.37.19v-16.98Z"/>
  </g>
</svg>